HIERARCHY
ROOT Hips
{
	OFFSET 0.00000 0.00000 0.00000
	CHANNELS 6 Xposition Yposition Zposition Zrotation Yrotation Xrotation 
	JOINT LHipJoint
	{
		OFFSET 0 0 0
		CHANNELS 3 Zrotation Yrotation Xrotation
		JOINT LeftUpLeg
		{
			OFFSET 1.59801 -1.77853 0.57028
			CHANNELS 3 Zrotation Yrotation Xrotation
			JOINT LeftLeg
			{
				OFFSET 2.39439 -6.57854 0.00000
				CHANNELS 3 Zrotation Yrotation Xrotation
				JOINT LeftFoot
				{
					OFFSET 2.69334 -7.39989 0.00000
					CHANNELS 3 Zrotation Yrotation Xrotation
					JOINT LeftToeBase
					{
						OFFSET 0.09553 -0.26245 1.73747
						CHANNELS 3 Zrotation Yrotation Xrotation
						End Site
						{
							OFFSET 0.00000 -0.00000 0.89391
						}
					}
				}
			}
		}
	}
	JOINT RHipJoint
	{
		OFFSET 0 0 0
		CHANNELS 3 Zrotation Yrotation Xrotation
		JOINT RightUpLeg
		{
			OFFSET -1.54704 -1.77852 0.57028
			CHANNELS 3 Zrotation Yrotation Xrotation
			JOINT RightLeg
			{
				OFFSET -2.40286 -6.60180 0.00000
				CHANNELS 3 Zrotation Yrotation Xrotation
				JOINT RightFoot
				{
					OFFSET -2.63873 -7.24984 0.00000
					CHANNELS 3 Zrotation Yrotation Xrotation
					JOINT RightToeBase
					{
						OFFSET -0.15631 -0.42945 1.84436
						CHANNELS 3 Zrotation Yrotation Xrotation
						End Site
						{
							OFFSET -0.00000 -0.00000 0.95734
						}
					}
				}
			}
		}
	}
	JOINT LowerBack
	{
		OFFSET 0 0 0
		CHANNELS 3 Zrotation Yrotation Xrotation
		JOINT Spine
		{
			OFFSET -0.00436 1.89866 -0.04018
			CHANNELS 3 Zrotation Yrotation Xrotation
			JOINT Spine1
			{
				OFFSET 0.02031 1.88273 0.09634
				CHANNELS 3 Zrotation Yrotation Xrotation
				JOINT Neck
				{
					OFFSET 0 0 0
					CHANNELS 3 Zrotation Yrotation Xrotation
					JOINT Neck1
					{
						OFFSET -0.13105 1.89371 0.23083
						CHANNELS 3 Zrotation Yrotation Xrotation
						JOINT Head
						{
							OFFSET 0.17062 1.83990 -0.54062
							CHANNELS 3 Zrotation Yrotation Xrotation
							End Site
							{
								OFFSET 0.04576 1.94782 -0.21839
							}
						}
					}
				}
				JOINT LeftShoulder
				{
					OFFSET 0 0 0
					CHANNELS 3 Zrotation Yrotation Xrotation
					JOINT LeftArm
					{
						OFFSET 3.12424 1.09204 0.22226
						CHANNELS 3 Zrotation Yrotation Xrotation
						JOINT LeftForeArm
						{
							OFFSET 5.29277 -0.00000 0.00000
							CHANNELS 3 Zrotation Yrotation Xrotation
							JOINT LeftHand
							{
								OFFSET 2.85226 -0.00000 0.00000
								CHANNELS 3 Zrotation Yrotation Xrotation
								JOINT LeftFingerBase
								{
									OFFSET 0 0 0
									CHANNELS 3 Zrotation Yrotation Xrotation
									JOINT LeftHandIndex1
									{
										OFFSET 0.60210 -0.00000 0.00000
										CHANNELS 3 Zrotation Yrotation Xrotation
										End Site
										{
											OFFSET 0.48543 -0.00000 0.00000
										}
									}
								}
								JOINT LThumb
								{
									OFFSET 0 0 0
									CHANNELS 3 Zrotation Yrotation Xrotation
									End Site
									{
										OFFSET 0.49284 -0.00000 0.49284
									}
								}
							}
						}
					}
				}
				JOINT RightShoulder
				{
					OFFSET 0 0 0
					CHANNELS 3 Zrotation Yrotation Xrotation
					JOINT RightArm
					{
						OFFSET -2.91709 1.01504 0.30199
						CHANNELS 3 Zrotation Yrotation Xrotation
						JOINT RightForeArm
						{
							OFFSET -5.13304 -0.00000 0.00000
							CHANNELS 3 Zrotation Yrotation Xrotation
							JOINT RightHand
							{
								OFFSET -2.74305 -0.00000 0.00000
								CHANNELS 3 Zrotation Yrotation Xrotation
								JOINT RightFingerBase
								{
									OFFSET 0 0 0
									CHANNELS 3 Zrotation Yrotation Xrotation
									JOINT RightHandIndex1
									{
										OFFSET -0.76798 -0.00000 0.00000
										CHANNELS 3 Zrotation Yrotation Xrotation
										End Site
										{
											OFFSET -0.61916 -0.00000 0.00000
										}
									}
								}
								JOINT RThumb
								{
									OFFSET 0 0 0
									CHANNELS 3 Zrotation Yrotation Xrotation
									End Site
									{
										OFFSET -0.62862 -0.00000 0.62862
									}
								}
							}
						}
					}
				}
			}
		}
	}
}
MOTION
Frames: 5
Frame Time: .0083333
1.5603 16.9403 -1.0775 5.8655 -5.4044 16.8064 0.0000 0.0000 0.0000 -26.3337 -14.0118 -30.1374 3.0170 10.7225 31.3497 0.7650 -2.8219 -15.8096 0.3269 -3.6750 -10.1642 0.0000 0.0000 0.0000 1.1489 16.2562 -32.2231 -3.6676 -11.7044 34.6942 -0.9478 -3.5300 -19.9875 -2.4941 9.8272 -28.4189 9.5879 0.0424 22.5224 10.3961 2.6117 7.9871 5.2638 1.2124 -3.8176 -12.8443 -7.2865 -7.8233 15.8047 -8.9706 -1.1467 6.4569 -4.1805 2.2992 -0.0000 0.0000 0.0000 -21.2848 16.3338 54.2216 26.2127 -37.4180 -9.0166 -0.0000 0.0000 -70.0072 22.7045 32.1426 12.5495 -7.1250 0.0000 -0.0000 -11.6630 63.8751 -5.3721 -0.0000 0.0000 0.0000 33.5397 2.4052 -57.4284 -31.4251 42.0840 -12.3538 0.0000 -0.0000 -30.8318 -50.1226 -13.4813 15.5913 7.1250 -0.0000 -0.0000 -22.6793 -49.0791 2.3936
1.5749 16.9465 -1.0712 5.9614 -5.7015 16.9918 0.0000 0.0000 0.0000 -26.4816 -14.0655 -30.2170 2.9806 10.6635 31.1533 0.7752 -2.6465 -15.9484 0.3243 -3.6600 -10.1221 0.0000 0.0000 0.0000 0.8566 16.4720 -32.3605 -3.6289 -11.6495 34.5029 -0.9255 -3.6111 -19.8210 -2.4510 9.7483 -28.1656 9.5063 -0.0046 22.3690 10.3889 2.5017 8.0168 5.3287 1.1601 -3.7073 -12.6462 -7.2124 -7.8463 15.5323 -8.8602 -1.3268 6.3492 -4.1338 2.2095 0.0000 -0.0000 0.0000 -21.3218 16.3872 54.0393 26.0508 -37.2589 -8.9184 -0.0000 0.0000 -69.7987 22.4674 32.3941 12.4923 -7.1250 0.0000 -0.0000 -12.1371 64.0595 -5.6458 0.0000 -0.0000 0.0000 33.6686 2.4395 -57.5770 -31.3808 42.0479 -12.3241 0.0000 -0.0000 -30.7350 -49.3844 -13.1547 14.8624 7.1250 -0.0000 -0.0000 -21.7564 -48.4569 1.9404
1.5866 16.9512 -1.0663 6.0049 -5.9765 17.1388 0.0000 0.0000 0.0000 -26.5720 -14.0772 -30.2390 2.9369 10.5922 30.9167 0.7681 -2.4481 -15.9093 0.3094 -3.5763 -9.8875 0.0000 0.0000 0.0000 0.6530 16.6987 -32.4451 -3.5922 -11.5971 34.3210 -0.9184 -3.6206 -19.7580 -2.3724 9.6021 -27.6976 9.1888 0.0492 22.6899 10.6094 2.6064 7.7729 5.7337 1.1943 -4.1732 -12.7284 -7.2170 -7.6654 15.2353 -8.8714 -1.2960 6.2735 -4.1512 2.1761 -0.0000 -0.0000 0.0000 -21.6200 16.5023 54.1223 25.8766 -37.0866 -8.8131 -0.0000 0.0000 -69.3020 22.1541 32.6162 12.3780 -7.1250 0.0000 -0.0000 -12.6831 64.1930 -5.9432 -0.0000 -0.0000 0.0000 33.4651 1.9322 -57.3728 -31.1614 41.8683 -12.1774 0.0000 -0.0000 -30.1806 -48.8121 -13.1688 14.5929 7.1250 -0.0000 -0.0000 -21.1459 -48.3439 1.8200
1.6004 16.9627 -1.0580 6.0276 -6.2829 17.1990 0.0000 0.0000 0.0000 -26.6916 -13.9645 -30.1748 2.8918 10.5178 30.6703 0.7574 -2.2554 -15.8314 0.2962 -3.4997 -9.6733 0.0000 0.0000 0.0000 0.4899 16.9070 -32.4537 -3.5555 -11.5442 34.1380 -0.9164 -3.5051 -19.6747 -2.3333 9.5283 -27.4623 9.1927 0.0348 22.7852 10.6064 2.6061 7.7363 5.7295 1.1906 -4.2619 -12.7705 -7.2182 -7.5220 15.2553 -8.8712 -1.4518 6.2932 -4.1588 2.1102 0.0000 0.0000 0.0000 -21.5950 16.4710 54.1013 25.7431 -36.9539 -8.7327 -0.0000 0.0000 -69.0198 21.8579 32.6774 12.2205 -7.1250 0.0000 -0.0000 -13.0822 64.1723 -6.1270 0.0000 0.0000 0.0000 33.6410 1.5890 -57.5186 -30.9286 41.6761 -12.0223 0.0000 -0.0000 -29.2662 -48.4752 -13.5121 14.7814 7.1250 -0.0000 -0.0000 -20.8953 -48.7303 2.0030
1.6174 16.9763 -1.0425 6.0855 -6.7474 17.2651 0.0000 0.0000 0.0000 -26.8790 -13.7954 -30.1169 2.8515 10.4508 30.4491 0.7666 -2.1565 -15.9506 0.2670 -3.3239 -9.1818 0.0000 0.0000 0.0000 0.2360 17.1926 -32.4655 -3.5137 -11.4836 33.9287 -0.9143 -3.3376 -19.5633 -2.2912 9.4480 -27.2069 9.4325 -0.0521 22.4173 10.3221 2.4270 7.9590 5.3146 1.1170 -3.7943 -12.7905 -7.1275 -7.2877 15.6890 -8.7374 -1.9521 6.4577 -4.1031 1.9344 -0.0000 -0.0000 0.0000 -21.2700 16.3951 53.7611 25.5817 -36.7927 -8.6359 -0.0000 0.0000 -68.8407 21.6245 32.6749 12.0800 -7.1250 0.0000 -0.0000 -13.3551 64.1064 -6.2365 -0.0000 -0.0000 0.0000 34.1901 1.6805 -57.8193 -30.7885 41.5597 -11.9293 0.0000 -0.0000 -28.6817 -48.1786 -13.6306 14.7552 7.1250 -0.0000 -0.0000 -20.6129 -48.8213 2.0215
